# xmcd
#
# Track frame offsets: 
#        183
#        14420
#        28258
#        41228
#        56378
#        68823
#        81575
#        92323
#        104310
#        118028
#        130175
#        142380
#
# Disc length: 2110 seconds
#
# Revision: 6
# Processed by: cddbd v1.5.2PL0 Copyright (c) Steve Scherf et al.
# Submitted via: ExactAudioCopyFreeDBPlugin 1.0
#
DISCID=ab083c0c
DTITLE=Eddie Floyd - Knock on Wood
DYEAR=1967
DGENRE=Soul
TTITLE0=Knock on Wood
TTITLE1=Something You Got
TTITLE2=But It's Alright
TTITLE3=I Stand Accused
TTITLE4=If You Gotta Make a Fool of Somebody
TTITLE5=I Don't Want to Cry
TTITLE6=Raise Your Hand
TTITLE7=Got to Make a Comeback
TTITLE8=634-5789
TTITLE9=I've Just Been Feeling Bad
TTITLE10=High-Heel Sneakers
TTITLE11=Warm and Tender Love
EXTD=
EXTT0=
EXTT1=
EXTT2=
EXTT3=
EXTT4=
EXTT5=
EXTT6=
EXTT7=
EXTT8=
EXTT9=
EXTT10=
EXTT11=
PLAYORDER=
